<svg id="Layer_1" xmlns="http://www.w3.org/2000/svg" viewBox="0 0 500 262.7"><style>.st0{fill:#3fa9f5}.st1{fill:#fff}</style><path class="st0" d="M25.4 64.2l-4.5 8.5v28.6H6.2V8.1h14.6v40.6L40 8.1h14.6L34.3 49.7l20.4 51.6h-15L25.4 64.2zM61.3 8.1h14.6v93.2H61.3V8.1zm38.3 25.7v67.5H86.5V8.1h18.4l15 55.8V8.1h13v93.2h-15L99.6 33.8zm42.6-3.3c0-14.9 7.9-23.4 22.2-23.4 14.4 0 22.2 8.5 22.2 23.4V79c0 14.9-7.9 23.4-22.2 23.4-14.4 0-22.2-8.5-22.2-23.4V30.5zm14.7 49.4c0 6.7 2.9 9.2 7.6 9.2s7.6-2.5 7.6-9.2V29.6c0-6.7-2.9-9.2-7.6-9.2s-7.6 2.5-7.6 9.2v50.3z"/><path class="st1" d="M208.9 87.2v14.1h-14.1V87.2h14.1zm41.3 14.1c-.8-2.4-1.3-3.9-1.3-11.4V75.2c0-8.7-2.9-11.8-9.6-11.8h-5.1v37.9h-14.6V8.1h22.1c15.2 0 21.7 7.1 21.7 21.4v7.3c0 9.6-3.1 15.8-9.6 18.9 7.3 3.1 9.7 10.1 9.7 19.8V90c0 4.5.1 7.9 1.6 11.3h-14.9zm-16-79.9V50h5.7c5.5 0 8.8-2.4 8.8-9.9V31c0-6.7-2.3-9.6-7.5-9.6h-7zm53.5 26h20.1v13.3h-20.1V88H313v13.3h-39.9V8.1H313v13.3h-25.3v26zm47.4-13.6v67.5h-13.2V8.1h18.4l15 55.8V8.1h13v93.2h-15l-18.2-67.5zm39.6-25.7H420v13.3h-15.3v79.9H390V21.4h-15.3V8.1zM49.6 141.8v12.1c0 14.9-7.2 23-21.8 23h-6.9v35H6.2v-93.2h21.6c14.6.1 21.8 8.2 21.8 23.1zm-28.8-9.7v31.5h6.9c4.7 0 7.2-2.1 7.2-8.8v-14c0-6.7-2.5-8.8-7.2-8.8h-6.9zM87 212c-.8-2.4-1.3-3.9-1.3-11.4V186c0-8.7-2.9-11.8-9.6-11.8H71V212H56.4v-93.2h22.1c15.2 0 21.7 7.1 21.7 21.4v7.3c0 9.6-3.1 15.8-9.6 18.9 7.3 3.1 9.7 10.1 9.7 19.8v14.4c0 4.5.1 7.9 1.6 11.3H87zm-16-79.9v28.6h5.7c5.5 0 8.8-2.4 8.8-9.9v-9.2c0-6.7-2.3-9.6-7.5-9.6h-7zm37.7 9.1c0-14.9 7.9-23.4 22.2-23.4 14.4 0 22.2 8.5 22.2 23.4v48.5c0 14.9-7.9 23.4-22.2 23.4-14.4 0-22.2-8.5-22.2-23.4v-48.5zm14.6 49.3c0 6.7 2.9 9.2 7.6 9.2s7.6-2.5 7.6-9.2v-50.3c0-6.7-2.9-9.2-7.6-9.2s-7.6 2.5-7.6 9.2v50.3zm39.3-71.7h23.2c14.6 0 21.8 8.1 21.8 23V189c0 14.9-7.2 23-21.8 23h-23.2v-93.2zm14.6 13.3v66.6h8.3c4.7 0 7.5-2.4 7.5-9.1v-48.5c0-6.7-2.8-9.1-7.5-9.1h-8.3zm53.7-13.3v71.9c0 6.7 2.9 9.1 7.6 9.1s7.6-2.4 7.6-9.1v-71.9h13.8v70.9c0 14.9-7.5 23.4-21.8 23.4-14.4 0-21.8-8.5-21.8-23.4v-70.9h14.6zm81.5 58.4v12.4c0 14.9-7.5 23.4-21.8 23.4-14.4 0-21.8-8.5-21.8-23.4v-48.5c0-14.9 7.5-23.4 21.8-23.4 14.4 0 21.8 8.5 21.8 23.4v9.1h-13.8v-10c0-6.7-2.9-9.2-7.6-9.2s-7.6 2.5-7.6 9.2v50.3c0 6.7 2.9 9.1 7.6 9.1s7.6-2.4 7.6-9.1v-13.3h13.8zm4.6-58.4h45.3v13.3H347V212h-14.6v-79.9H317v-13.3zm51.7 0h14.6V212h-14.6v-93.2zm24.1 22.4c0-14.9 7.9-23.4 22.2-23.4 14.4 0 22.2 8.5 22.2 23.4v48.5c0 14.9-7.9 23.4-22.2 23.4-14.4 0-22.2-8.5-22.2-23.4v-48.5zm14.6 49.3c0 6.7 2.9 9.2 7.6 9.2s7.6-2.5 7.6-9.2v-50.3c0-6.7-2.9-9.2-7.6-9.2s-7.6 2.5-7.6 9.2v50.3zm52.3-46V212h-13.2v-93.2h18.4l15 55.8v-55.8h13V212h-15l-18.2-67.5zM174.8 257.3h40.3l34.9-30.2h-40.4zm88.8 0h40.3l34.9-30.2h-40.4zm-177.7 0h40.4l34.9-30.2h-40.4zm-79.7 0h31.3l34.9-30.2H6.2v30.2zM24.3 235c3.9 0 7.1 3.2 7.1 7.1 0 3.9-3.2 7.1-7.1 7.1s-7.1-3.2-7.1-7.1c-.1-3.9 3.1-7.1 7.1-7.1zm451.8-7.9l-34.9 30.2H493v-30.2zm-123.7 30.2h40.4l34.8-30.2h-40.3z"/></svg>