<?xml version="1.0" encoding="utf-8"?><svg xmlns="http://www.w3.org/2000/svg" xmlns:xlink="http://www.w3.org/1999/xlink"><symbol viewBox="0 0 348.077 348.077" id="call" xmlns="http://www.w3.org/2000/svg"><path d="M340.273 275.083l-53.755-53.761c-10.707-10.664-28.438-10.34-39.518.744l-27.082 27.076a792.327 792.327 0 0 1-5.344-2.973c-17.102-9.476-40.509-22.464-65.14-47.113-24.704-24.701-37.704-48.144-47.209-65.257-1.003-1.813-1.964-3.561-2.913-5.221l18.176-18.149 8.936-8.947c11.097-11.1 11.403-28.826.721-39.521L73.39 8.194c-10.682-10.68-28.421-10.356-39.518.744l-15.15 15.237.414.411c-5.08 6.482-9.325 13.958-12.484 22.02C3.74 54.28 1.927 61.603 1.098 68.941-6 127.785 20.89 181.564 93.866 254.541c100.875 100.868 182.167 93.248 185.674 92.876 7.638-.913 14.958-2.738 22.397-5.627 7.992-3.122 15.463-7.361 21.941-12.43l.331.294 15.348-15.029c11.074-11.098 11.393-28.83.716-39.542z"/></symbol><symbol viewBox="0 0 124 124" id="close" xmlns="http://www.w3.org/2000/svg"><path d="M113 96.5L27.9 11.4C22.3 5.8 13.9 5 9.2 9.7s-3.9 13 1.8 18.7l85.1 85.1c5.6 5.6 14 6.4 18.7 1.7 4.6-4.7 3.9-13.1-1.8-18.7z"/><path d="M96.3 11.1L10.7 96.8c-5.7 5.7-6.5 14.1-1.8 18.8 4.7 4.7 13.1 3.9 18.8-1.8l85.6-85.6c5.7-5.7 6.5-14.1 1.8-18.8-4.7-4.7-13.1-3.9-18.8 1.7z"/></symbol><symbol viewBox="0 0 124 124" id="humburger" xmlns="http://www.w3.org/2000/svg"><path d="M112 6H12C5.4 6 0 11.4 0 18s5.4 12 12 12h100c6.6 0 12-5.4 12-12s-5.4-12-12-12zm0 44H12C5.4 50 0 55.4 0 62s5.4 12 12 12h100c6.6 0 12-5.4 12-12s-5.4-12-12-12zm0 44H12c-6.6 0-12 5.4-12 12s5.4 12 12 12h100c6.6 0 12-5.4 12-12s-5.4-12-12-12z"/></symbol><symbol id="logo" viewBox="0 0 500 262.7" xmlns="http://www.w3.org/2000/svg"><style>.dst0{fill:#3fa9f5}.dst1{fill:#fff}</style><path class="dst0" d="M25.4 64.2l-4.5 8.5v28.6H6.2V8.1h14.6v40.6L40 8.1h14.6L34.3 49.7l20.4 51.6h-15L25.4 64.2zM61.3 8.1h14.6v93.2H61.3V8.1zm38.3 25.7v67.5H86.5V8.1h18.4l15 55.8V8.1h13v93.2h-15L99.6 33.8zm42.6-3.3c0-14.9 7.9-23.4 22.2-23.4 14.4 0 22.2 8.5 22.2 23.4V79c0 14.9-7.9 23.4-22.2 23.4-14.4 0-22.2-8.5-22.2-23.4V30.5zm14.7 49.4c0 6.7 2.9 9.2 7.6 9.2s7.6-2.5 7.6-9.2V29.6c0-6.7-2.9-9.2-7.6-9.2s-7.6 2.5-7.6 9.2v50.3z"/><path class="dst1" d="M208.9 87.2v14.1h-14.1V87.2h14.1zm41.3 14.1c-.8-2.4-1.3-3.9-1.3-11.4V75.2c0-8.7-2.9-11.8-9.6-11.8h-5.1v37.9h-14.6V8.1h22.1c15.2 0 21.7 7.1 21.7 21.4v7.3c0 9.6-3.1 15.8-9.6 18.9 7.3 3.1 9.7 10.1 9.7 19.8V90c0 4.5.1 7.9 1.6 11.3h-14.9zm-16-79.9V50h5.7c5.5 0 8.8-2.4 8.8-9.9V31c0-6.7-2.3-9.6-7.5-9.6h-7zm53.5 26h20.1v13.3h-20.1V88H313v13.3h-39.9V8.1H313v13.3h-25.3v26zm47.4-13.6v67.5h-13.2V8.1h18.4l15 55.8V8.1h13v93.2h-15l-18.2-67.5zm39.6-25.7H420v13.3h-15.3v79.9H390V21.4h-15.3V8.1zM49.6 141.8v12.1c0 14.9-7.2 23-21.8 23h-6.9v35H6.2v-93.2h21.6c14.6.1 21.8 8.2 21.8 23.1zm-28.8-9.7v31.5h6.9c4.7 0 7.2-2.1 7.2-8.8v-14c0-6.7-2.5-8.8-7.2-8.8h-6.9zM87 212c-.8-2.4-1.3-3.9-1.3-11.4V186c0-8.7-2.9-11.8-9.6-11.8H71V212H56.4v-93.2h22.1c15.2 0 21.7 7.1 21.7 21.4v7.3c0 9.6-3.1 15.8-9.6 18.9 7.3 3.1 9.7 10.1 9.7 19.8v14.4c0 4.5.1 7.9 1.6 11.3H87zm-16-79.9v28.6h5.7c5.5 0 8.8-2.4 8.8-9.9v-9.2c0-6.7-2.3-9.6-7.5-9.6h-7zm37.7 9.1c0-14.9 7.9-23.4 22.2-23.4 14.4 0 22.2 8.5 22.2 23.4v48.5c0 14.9-7.9 23.4-22.2 23.4-14.4 0-22.2-8.5-22.2-23.4v-48.5zm14.6 49.3c0 6.7 2.9 9.2 7.6 9.2s7.6-2.5 7.6-9.2v-50.3c0-6.7-2.9-9.2-7.6-9.2s-7.6 2.5-7.6 9.2v50.3zm39.3-71.7h23.2c14.6 0 21.8 8.1 21.8 23V189c0 14.9-7.2 23-21.8 23h-23.2v-93.2zm14.6 13.3v66.6h8.3c4.7 0 7.5-2.4 7.5-9.1v-48.5c0-6.7-2.8-9.1-7.5-9.1h-8.3zm53.7-13.3v71.9c0 6.7 2.9 9.1 7.6 9.1s7.6-2.4 7.6-9.1v-71.9h13.8v70.9c0 14.9-7.5 23.4-21.8 23.4-14.4 0-21.8-8.5-21.8-23.4v-70.9h14.6zm81.5 58.4v12.4c0 14.9-7.5 23.4-21.8 23.4-14.4 0-21.8-8.5-21.8-23.4v-48.5c0-14.9 7.5-23.4 21.8-23.4 14.4 0 21.8 8.5 21.8 23.4v9.1h-13.8v-10c0-6.7-2.9-9.2-7.6-9.2s-7.6 2.5-7.6 9.2v50.3c0 6.7 2.9 9.1 7.6 9.1s7.6-2.4 7.6-9.1v-13.3h13.8zm4.6-58.4h45.3v13.3H347V212h-14.6v-79.9H317v-13.3zm51.7 0h14.6V212h-14.6v-93.2zm24.1 22.4c0-14.9 7.9-23.4 22.2-23.4 14.4 0 22.2 8.5 22.2 23.4v48.5c0 14.9-7.9 23.4-22.2 23.4-14.4 0-22.2-8.5-22.2-23.4v-48.5zm14.6 49.3c0 6.7 2.9 9.2 7.6 9.2s7.6-2.5 7.6-9.2v-50.3c0-6.7-2.9-9.2-7.6-9.2s-7.6 2.5-7.6 9.2v50.3zm52.3-46V212h-13.2v-93.2h18.4l15 55.8v-55.8h13V212h-15l-18.2-67.5zM174.8 257.3h40.3l34.9-30.2h-40.4zm88.8 0h40.3l34.9-30.2h-40.4zm-177.7 0h40.4l34.9-30.2h-40.4zm-79.7 0h31.3l34.9-30.2H6.2v30.2zM24.3 235c3.9 0 7.1 3.2 7.1 7.1 0 3.9-3.2 7.1-7.1 7.1s-7.1-3.2-7.1-7.1c-.1-3.9 3.1-7.1 7.1-7.1zm451.8-7.9l-34.9 30.2H493v-30.2zm-123.7 30.2h40.4l34.8-30.2h-40.3z"/></symbol><symbol viewBox="0 0 14 14" id="mail" xmlns="http://www.w3.org/2000/svg"><path d="M7 9L5.268 7.484.316 11.729c.18.167.423.271.691.271h11.986c.267 0 .509-.104.688-.271L8.732 7.484 7 9z"/><path d="M13.684 2.271A1.007 1.007 0 0 0 12.993 2H1.007c-.267 0-.509.104-.689.273L7 8l6.684-5.729zM0 2.878v8.308l4.833-4.107zm9.167 4.201L14 11.186V2.875z"/></symbol><symbol viewBox="0 0 512 512" id="maps" xmlns="http://www.w3.org/2000/svg"><path d="M256 0C153.755 0 70.573 83.182 70.573 185.426c0 126.888 165.939 313.167 173.004 321.035 6.636 7.391 18.222 7.378 24.846 0 7.065-7.868 173.004-194.147 173.004-321.035C441.425 83.182 358.244 0 256 0zm0 278.719c-51.442 0-93.292-41.851-93.292-93.293S204.559 92.134 256 92.134s93.291 41.851 93.291 93.293-41.85 93.292-93.291 93.292z"/></symbol><symbol viewBox="0 0 300 300" id="telegram" xmlns="http://www.w3.org/2000/svg"><path d="M5.299 144.645l69.126 25.8 26.756 86.047c1.712 5.511 8.451 7.548 12.924 3.891l38.532-31.412a11.496 11.496 0 0 1 14.013-.391l69.498 50.457c4.785 3.478 11.564.856 12.764-4.926L299.823 29.22c1.31-6.316-4.896-11.585-10.91-9.259L5.218 129.402c-7.001 2.7-6.94 12.612.081 15.243zm91.57 12.066l135.098-83.207c2.428-1.491 4.926 1.792 2.841 3.726L123.313 180.87a23.112 23.112 0 0 0-7.163 13.829l-3.798 28.146c-.503 3.758-5.782 4.131-6.819.494l-14.607-51.325c-1.673-5.854.765-12.107 5.943-15.303z"/></symbol></svg>