<?xml version="1.0" encoding="utf-8"?>
<!-- Generator: Adobe Illustrator 21.1.0, SVG Export Plug-In . SVG Version: 6.00 Build 0)  -->
<svg version="1.1" id="Capa_1" xmlns="http://www.w3.org/2000/svg" xmlns:xlink="http://www.w3.org/1999/xlink" x="0px" y="0px"
	 viewBox="0 0 124 124" style="enable-background:new 0 0 124 124;" xml:space="preserve">
<g>
	<path d="M113,96.5L27.9,11.4C22.3,5.8,13.9,5,9.2,9.7S5.3,22.7,11,28.4l85.1,85.1c5.6,5.6,14,6.4,18.7,1.7
		C119.4,110.5,118.7,102.1,113,96.5z"/>
	<path d="M96.3,11.1L10.7,96.8c-5.7,5.7-6.5,14.1-1.8,18.8c4.7,4.7,13.1,3.9,18.8-1.8l85.6-85.6c5.7-5.7,6.5-14.1,1.8-18.8
		C110.4,4.7,102,5.5,96.3,11.1z"/>
</g>
</svg>
