<?xml version="1.0" encoding="utf-8"?>
<!-- Generator: Adobe Illustrator 21.1.0, SVG Export Plug-In . SVG Version: 6.00 Build 0)  -->
<svg version="1.1" id="Layer_1" xmlns="http://www.w3.org/2000/svg" xmlns:xlink="http://www.w3.org/1999/xlink" x="0px" y="0px"
	 viewBox="0 0 500 262.7" style="enable-background:new 0 0 500 262.7;" xml:space="preserve">
<style type="text/css">
	.st0{fill:#3FA9F5;}
	.st1{fill:#FFFFFF;}
</style>
<g>
	<g>
		<g>
			<path class="st0" d="M25.4,64.2l-4.5,8.5v28.6H6.2V8.1h14.6v40.6L40,8.1h14.6L34.3,49.7l20.4,51.6h-15L25.4,64.2z"/>
			<path class="st0" d="M61.3,8.1h14.6v93.2H61.3V8.1z"/>
			<path class="st0" d="M99.6,33.8v67.5H86.5V8.1h18.4l15,55.8V8.1h13v93.2h-15L99.6,33.8z"/>
			<path class="st0" d="M142.2,30.5c0-14.9,7.9-23.4,22.2-23.4c14.4,0,22.2,8.5,22.2,23.4v48.5c0,14.9-7.9,23.4-22.2,23.4
				c-14.4,0-22.2-8.5-22.2-23.4V30.5z M156.9,79.9c0,6.7,2.9,9.2,7.6,9.2s7.6-2.5,7.6-9.2V29.6c0-6.7-2.9-9.2-7.6-9.2
				s-7.6,2.5-7.6,9.2V79.9z"/>
			<path class="st1" d="M208.9,87.2v14.1h-14.1V87.2H208.9z"/>
			<path class="st1" d="M250.2,101.3c-0.8-2.4-1.3-3.9-1.3-11.4V75.2c0-8.7-2.9-11.8-9.6-11.8h-5.1v37.9h-14.6V8.1h22.1
				c15.2,0,21.7,7.1,21.7,21.4v7.3c0,9.6-3.1,15.8-9.6,18.9c7.3,3.1,9.7,10.1,9.7,19.8V90c0,4.5,0.1,7.9,1.6,11.3H250.2z
				 M234.2,21.4v28.6h5.7c5.5,0,8.8-2.4,8.8-9.9V31c0-6.7-2.3-9.6-7.5-9.6H234.2z"/>
			<path class="st1" d="M287.7,47.4h20.1v13.3h-20.1V88H313v13.3h-39.9V8.1H313v13.3h-25.3V47.4z"/>
			<path class="st1" d="M335.1,33.8v67.5h-13.2V8.1h18.4l15,55.8V8.1h13v93.2h-15L335.1,33.8z"/>
			<path class="st1" d="M374.7,8.1h45.3v13.3h-15.3v79.9H390V21.4h-15.3V8.1z"/>
			<path class="st1" d="M49.6,141.8v12.1c0,14.9-7.2,23-21.8,23h-6.9v35H6.2v-93.2h21.6C42.4,118.8,49.6,126.9,49.6,141.8z
				 M20.8,132.1v31.5h6.9c4.7,0,7.2-2.1,7.2-8.8v-14c0-6.7-2.5-8.8-7.2-8.8H20.8z"/>
			<path class="st1" d="M87,212c-0.8-2.4-1.3-3.9-1.3-11.4v-14.6c0-8.7-2.9-11.8-9.6-11.8H71V212H56.4v-93.2h22.1
				c15.2,0,21.7,7.1,21.7,21.4v7.3c0,9.6-3.1,15.8-9.6,18.9c7.3,3.1,9.7,10.1,9.7,19.8v14.4c0,4.5,0.1,7.9,1.6,11.3H87z M71,132.1
				v28.6h5.7c5.5,0,8.8-2.4,8.8-9.9v-9.2c0-6.7-2.3-9.6-7.5-9.6H71z"/>
			<path class="st1" d="M108.7,141.2c0-14.9,7.9-23.4,22.2-23.4c14.4,0,22.2,8.5,22.2,23.4v48.5c0,14.9-7.9,23.4-22.2,23.4
				c-14.4,0-22.2-8.5-22.2-23.4V141.2z M123.3,190.5c0,6.7,2.9,9.2,7.6,9.2s7.6-2.5,7.6-9.2v-50.3c0-6.7-2.9-9.2-7.6-9.2
				s-7.6,2.5-7.6,9.2V190.5z"/>
			<path class="st1" d="M162.6,118.8h23.2c14.6,0,21.8,8.1,21.8,23V189c0,14.9-7.2,23-21.8,23h-23.2V118.8z M177.2,132.1v66.6h8.3
				c4.7,0,7.5-2.4,7.5-9.1v-48.5c0-6.7-2.8-9.1-7.5-9.1H177.2z"/>
			<path class="st1" d="M230.9,118.8v71.9c0,6.7,2.9,9.1,7.6,9.1s7.6-2.4,7.6-9.1v-71.9h13.8v70.9c0,14.9-7.5,23.4-21.8,23.4
				c-14.4,0-21.8-8.5-21.8-23.4v-70.9H230.9z"/>
			<path class="st1" d="M312.4,177.2v12.4c0,14.9-7.5,23.4-21.8,23.4c-14.4,0-21.8-8.5-21.8-23.4v-48.5c0-14.9,7.5-23.4,21.8-23.4
				c14.4,0,21.8,8.5,21.8,23.4v9.1h-13.8v-10c0-6.7-2.9-9.2-7.6-9.2s-7.6,2.5-7.6,9.2v50.3c0,6.7,2.9,9.1,7.6,9.1s7.6-2.4,7.6-9.1
				v-13.3H312.4z"/>
			<path class="st1" d="M317,118.8h45.3v13.3H347V212h-14.6v-79.9H317V118.8z"/>
			<path class="st1" d="M368.7,118.8h14.6V212h-14.6V118.8z"/>
			<path class="st1" d="M392.8,141.2c0-14.9,7.9-23.4,22.2-23.4c14.4,0,22.2,8.5,22.2,23.4v48.5c0,14.9-7.9,23.4-22.2,23.4
				c-14.4,0-22.2-8.5-22.2-23.4V141.2z M407.4,190.5c0,6.7,2.9,9.2,7.6,9.2s7.6-2.5,7.6-9.2v-50.3c0-6.7-2.9-9.2-7.6-9.2
				s-7.6,2.5-7.6,9.2V190.5z"/>
			<path class="st1" d="M459.7,144.5V212h-13.2v-93.2h18.4l15,55.8v-55.8h13V212h-15L459.7,144.5z"/>
		</g>
	</g>
	<g>
		<polygon class="st1" points="174.8,257.3 215.1,257.3 250,227.1 209.6,227.1 		"/>
		<polygon class="st1" points="263.6,257.3 303.9,257.3 338.8,227.1 298.4,227.1 		"/>
		<polygon class="st1" points="85.9,257.3 126.3,257.3 161.2,227.1 120.8,227.1 		"/>
		<path class="st1" d="M6.2,257.3h31.3l34.9-30.2H6.2V257.3z M24.3,235c3.9,0,7.1,3.2,7.1,7.1c0,3.9-3.2,7.1-7.1,7.1
			s-7.1-3.2-7.1-7.1C17.1,238.2,20.3,235,24.3,235z"/>
		<polygon class="st1" points="476.1,227.1 441.2,257.3 493,257.3 493,227.1 		"/>
		<polygon class="st1" points="352.4,257.3 392.8,257.3 427.6,227.1 387.3,227.1 		"/>
	</g>
</g>
</svg>
